<?xml version="1.0" encoding="iso-8859-1"?>
<!-- Generator: Adobe Illustrator 30.2.1, SVG Export Plug-In . SVG Version: 9.03 Build 0)  -->
<svg version="1.1" xmlns="http://www.w3.org/2000/svg" xmlns:xlink="http://www.w3.org/1999/xlink" x="0px" y="0px"
	 viewBox="0 0 641.124 201.456" style="enable-background:new 0 0 641.124 201.456;" xml:space="preserve">
<g id="Layer_3">
</g>
<g id="Layer_1">
	<g>
		<path style="fill:#E02927;" d="M174.271,126.836c0.51-3.015,0.773-6.117,0.773-9.277c0-3.159-0.263-6.262-0.773-9.277
			c-1.113-6.659-3.412-12.915-6.674-18.553c-2.963-5.128-6.72-9.735-11.106-13.657c-1.989-1.778-4.102-3.417-6.334-4.896
			c-3.772-2.51-7.875-4.571-12.219-6.107c-5.803-2.051-12.049-3.169-18.553-3.169c-6.504,0-12.75,1.118-18.553,3.169
			c-4.345,1.536-8.447,3.597-12.219,6.107c-2.232,1.479-4.345,3.118-6.334,4.896c-4.386,3.922-8.143,8.529-11.106,13.657
			c-3.262,5.638-5.561,11.895-6.674,18.553H26.619v64.936h18.553v-46.383h19.326c1.113,6.659,3.412,12.915,6.674,18.553
			c2.963,5.128,6.72,9.735,11.106,13.657c1.989,1.778,4.102,3.417,6.334,4.896c3.772,2.51,7.875,4.571,12.219,6.107
			c5.803,2.051,12.049,3.17,18.553,3.17h0.149c6.452-0.015,12.647-1.134,18.404-3.17c4.345-1.536,8.447-3.597,12.219-6.107
			c2.232-1.479,4.345-3.118,6.334-4.896c4.386-3.922,8.143-8.529,11.106-13.657h-23.676c-1.84,1.629-3.845,3.077-5.983,4.314
			c-5.458,3.154-11.797,4.963-18.553,4.963c-6.756,0-13.095-1.809-18.553-4.963c-2.139-1.237-4.144-2.685-5.983-4.314
			c-5.478-4.829-9.524-11.256-11.4-18.553H174.271z M94.848,89.73c1.84-1.629,3.845-3.077,5.983-4.314
			c5.458-3.154,11.797-4.963,18.553-4.963c6.756,0,13.095,1.809,18.553,4.963c2.139,1.237,4.144,2.685,5.983,4.314
			c5.478,4.829,9.524,11.256,11.4,18.553H83.448C85.324,100.986,89.37,94.559,94.848,89.73z"/>
		<path style="fill:#01954B;" d="M119.453,54.14c0,0-4.798-28.557,28.043-38.552C147.496,15.588,152.808,46.287,119.453,54.14z"/>
	</g>
	<g>
		<path style="fill:#FFFFFF;stroke:#FFFFFF;stroke-width:2;stroke-miterlimit:10;" d="M230.828,91.195h-25.42v24.026h22.96v3.115
			h-22.96v24.19h25.42v3.116h-29.11V88.079h29.11V91.195z"/>
		<path style="fill:#FFFFFF;stroke:#FFFFFF;stroke-width:2;stroke-miterlimit:10;" d="M252.968,126.045l-12.3,19.599h-3.936
			l14.35-22.468l-14.186-22.059h4.182l12.382,19.188l12.136-19.188h3.854l-14.186,22.141l14.432,22.386h-4.182L252.968,126.045z"/>
		<path style="fill:#FFFFFF;stroke:#FFFFFF;stroke-width:2;stroke-miterlimit:10;" d="M300.446,100.543
			c12.464,0,21.484,8.692,21.484,22.796c0,14.022-9.02,22.961-21.484,22.961c-9.758,0-16.4-5.576-18.86-12.301v32.637h-3.69v-65.519
			h3.69v11.726C283.963,106.037,290.688,100.543,300.446,100.543z M299.872,103.741c-10.332,0-18.286,7.708-18.286,19.598
			c0,12.055,7.954,19.681,18.286,19.681c10.824,0,18.286-7.38,18.286-19.681C318.158,111.039,310.696,103.741,299.872,103.741z"/>
		<path style="fill:#FFFFFF;stroke:#FFFFFF;stroke-width:2;stroke-miterlimit:10;" d="M352.679,146.3
			c-12.464,0-21.894-8.692-21.894-22.961c0-14.186,9.594-22.796,22.058-22.796c12.464,0,21.894,8.61,21.894,22.796
			C374.737,137.608,365.143,146.3,352.679,146.3z M352.679,143.02c9.348,0,18.368-6.15,18.368-19.681
			c0-13.447-8.938-19.598-18.286-19.598s-18.204,6.15-18.204,19.598C334.557,136.869,343.331,143.02,352.679,143.02z"/>
		<path style="fill:#FFFFFF;stroke:#FFFFFF;stroke-width:2;stroke-miterlimit:10;" d="M412.785,88.079v54.448h21.402v3.116h-25.092
			V88.079H412.785z"/>
		<path style="fill:#FFFFFF;stroke:#FFFFFF;stroke-width:2;stroke-miterlimit:10;" d="M480.19,145.644h-3.69v-9.676
			c-2.542,6.97-9.02,10.414-16.318,10.414c-9.922,0-18.04-5.904-18.04-19.353v-25.912h3.608v25.666c0,10.906,5.986,16.4,14.924,16.4
			c9.266,0,15.826-5.822,15.826-18.204v-23.862h3.69V145.644z"/>
		<path style="fill:#FFFFFF;stroke:#FFFFFF;stroke-width:2;stroke-miterlimit:10;" d="M493.637,84.963h3.69v36.326l19.106-20.172
			h5.166l-21.566,22.141l21.812,22.386h-5.084l-19.434-20.418v20.418h-3.69V84.963z"/>
		<path style="fill:#FFFFFF;stroke:#FFFFFF;stroke-width:2;stroke-miterlimit:10;" d="M567.11,145.644h-3.69v-9.676
			c-2.542,6.97-9.02,10.414-16.318,10.414c-9.922,0-18.04-5.904-18.04-19.353v-25.912h3.608v25.666c0,10.906,5.987,16.4,14.924,16.4
			c9.267,0,15.826-5.822,15.826-18.204v-23.862h3.69V145.644z"/>
		<path style="fill:#FFFFFF;stroke:#FFFFFF;stroke-width:2;stroke-miterlimit:10;" d="M595.4,146.3
			c-9.759,0-16.646-4.429-17.467-12.628h3.772c0.574,5.657,5.248,9.43,13.694,9.43c6.97,0,11.07-4.1,11.07-8.938
			c0-12.3-27.307-5.166-27.307-22.058c0-6.232,6.067-11.562,14.76-11.562c9.267,0,15.416,4.838,15.908,13.12h-3.689
			c-0.328-5.576-4.429-10.004-12.301-10.004c-6.478,0-10.988,3.854-10.988,8.446c0,13.776,27.061,6.478,27.225,22.058
			C610.078,141.134,603.928,146.3,595.4,146.3z"/>
	</g>
</g>
<g id="Layer_2">
</g>
</svg>
