<?xml version="1.0" encoding="UTF-8"?> <svg xmlns="http://www.w3.org/2000/svg" width="220" height="122" viewBox="0 0 220 122" fill="none"> <g clip-path="url(#clip0)"> <path d="M92.8672 121.09V100.633H106.07V104.031H97.2578V108.965H105.477V112.363H97.2578V121.09H92.8672Z" fill="#00B495"></path> <path d="M115.059 121.512C110.41 121.512 107.633 118.453 107.633 113.977C107.633 109.5 110.41 106.441 115.059 106.441C119.703 106.441 122.48 109.5 122.48 113.977C122.48 118.453 119.703 121.512 115.059 121.512ZM115.059 118.684C117.664 118.684 118.09 116.242 118.09 113.977C118.09 111.711 117.664 109.277 115.059 109.277C112.449 109.277 112.027 111.711 112.027 113.977C112.027 116.242 112.449 118.684 115.059 118.684Z" fill="#00B495"></path> <path d="M132.094 121.512C127.445 121.512 124.668 118.453 124.668 113.977C124.668 109.5 127.445 106.441 132.094 106.441C136.738 106.441 139.52 109.5 139.52 113.977C139.52 118.453 136.738 121.512 132.094 121.512ZM132.094 118.684C134.699 118.684 135.125 116.242 135.125 113.977C135.125 111.711 134.699 109.277 132.094 109.277C129.484 109.277 129.062 111.711 129.062 113.977C129.062 116.242 129.484 118.684 132.094 118.684Z" fill="#00B495"></path> <path d="M152.129 100.633H156.379V118.254C156.379 119.191 156.465 120.152 156.52 121.09H152.273C152.215 120.406 152.156 119.758 152.156 119.078H152.102C151.164 120.746 149.578 121.512 147.738 121.512C143.574 121.512 141.617 117.633 141.617 113.977C141.617 110.152 143.855 106.441 148.273 106.441C149.754 106.441 151.281 107.32 152.07 108.508H152.129V100.633ZM149.066 118.68C151.367 118.68 152.129 115.934 152.129 113.977C152.129 112.02 151.367 109.277 149.066 109.277C146.352 109.277 146.012 111.793 146.012 113.977C146.012 116.16 146.352 118.68 149.066 118.68Z" fill="#00B495"></path> <path d="M41.7422 20.7891H60.8281L70.3672 37.3203L60.8281 53.8477H41.7422L32.1992 37.3203L41.7422 20.7891Z" fill="#00305F"></path> <path d="M41.6484 59.2969H60.7344L70.2734 75.8242L60.7344 92.3516H41.6484L32.1055 75.8242L41.6484 59.2969Z" fill="#00305F"></path> <path d="M9.76953 -0.128906H28.8555L38.3945 16.4023L28.8555 32.9297H9.76953L0.226562 16.4023L9.76953 -0.128906Z" fill="#00B495"></path> <path d="M106.57 84H93.1562V21.5195H106.57V84Z" fill="#00305E"></path> <path d="M123.492 84V21.5156H163.828V31.8984H136.91V46.9531H162.008V57.3438H136.91V84H123.492Z" fill="#00305E"></path> <path d="M204.941 39.3398C204.418 33.0234 201.047 29.9102 194.551 29.9102C189.621 29.9102 184.602 32.5078 184.602 37.9609C184.602 44.7148 190.656 45.4922 196.027 46.7852C205.547 49.2148 219.566 51.8906 219.566 64.4375C219.566 79.9258 206.066 85.2969 192.648 85.2969C178.367 85.2969 168.246 79.7656 168.68 64.0117H182.348C181.836 70.9336 185.809 75.6016 192.82 75.6016C198.191 75.6016 205.281 73.9609 205.281 67.2969C205.281 59.9414 196.371 59.4258 191.008 58.0391C182.266 55.8672 170.32 51.8906 170.32 40.8164C170.32 26.5352 183.477 20.2188 196.289 20.2188C208.402 20.2188 217.836 26.7969 217.836 39.3398H204.941Z" fill="#00305E"></path> </g> <defs> <clipPath id="clip0"> <rect width="220" height="122" fill="white"></rect> </clipPath> </defs> </svg> 